<svg xmlns="http://www.w3.org/2000/svg" width="22.786" height="20.25" viewBox="0 0 22.786 20.25"><defs><style>.a{fill:#9c9c9c;}</style></defs><path class="a" d="M15.927,3.387l3.568,3.568a.387.387,0,0,1,0,.546l-8.64,8.64-3.671.407a.769.769,0,0,1-.851-.851l.407-3.671,8.64-8.64a.387.387,0,0,1,.546,0Zm6.409-.906L20.4.551a1.547,1.547,0,0,0-2.184,0l-1.4,1.4a.387.387,0,0,0,0,.546l3.568,3.568a.387.387,0,0,0,.546,0l1.4-1.4A1.547,1.547,0,0,0,22.335,2.481Zm-7.144,11.31v4.027H2.532V5.16h9.091a.486.486,0,0,0,.336-.138l1.582-1.582a.475.475,0,0,0-.336-.811H1.9A1.9,1.9,0,0,0,0,4.527V18.452a1.9,1.9,0,0,0,1.9,1.9H15.824a1.9,1.9,0,0,0,1.9-1.9V12.209a.476.476,0,0,0-.811-.336l-1.582,1.582A.486.486,0,0,0,15.191,13.791Z" transform="translate(0 -0.1)"/></svg>