<svg xmlns="http://www.w3.org/2000/svg" width="23.143" height="17.357" viewBox="0 0 23.143 17.357"><defs><style>.a{fill:#6b6b6b;}</style></defs><path class="a" d="M22.7,69.731a.272.272,0,0,1,.438.212v9.244a2.17,2.17,0,0,1-2.17,2.17H2.17A2.17,2.17,0,0,1,0,79.187V69.948a.27.27,0,0,1,.438-.212c1.012.786,2.355,1.785,6.965,5.135.954.7,2.563,2.161,4.168,2.152,1.614.014,3.254-1.483,4.172-2.152C20.354,71.521,21.692,70.518,22.7,69.731Zm-11.133,5.84c1.049.018,2.558-1.32,3.318-1.871,6-4.353,6.455-4.733,7.838-5.817a1.082,1.082,0,0,0,.416-.854V66.17A2.17,2.17,0,0,0,20.973,64H2.17A2.17,2.17,0,0,0,0,66.17v.859a1.088,1.088,0,0,0,.416.854c1.383,1.08,1.84,1.465,7.838,5.817C9.013,74.252,10.523,75.59,11.571,75.571Z" transform="translate(0 -64)"/></svg>