<svg xmlns="http://www.w3.org/2000/svg" width="23" height="17.889" viewBox="0 0 23 17.889"><defs><style>.a{fill:#6b6b6b;}</style></defs><path class="a" d="M21.083,32H1.917A1.917,1.917,0,0,0,0,33.917v.639H23v-.639A1.917,1.917,0,0,0,21.083,32ZM0,47.972a1.917,1.917,0,0,0,1.917,1.917H21.083A1.917,1.917,0,0,0,23,47.972V35.833H0Zm14.056-9.264a.32.32,0,0,1,.319-.319h5.75a.32.32,0,0,1,.319.319v.639a.32.32,0,0,1-.319.319h-5.75a.32.32,0,0,1-.319-.319Zm0,2.556a.32.32,0,0,1,.319-.319h5.75a.32.32,0,0,1,.319.319V41.9a.32.32,0,0,1-.319.319h-5.75a.32.32,0,0,1-.319-.319Zm0,2.556a.32.32,0,0,1,.319-.319h5.75a.32.32,0,0,1,.319.319v.639a.32.32,0,0,1-.319.319h-5.75a.32.32,0,0,1-.319-.319ZM7.028,38.389a2.556,2.556,0,1,1-2.556,2.556A2.558,2.558,0,0,1,7.028,38.389ZM2.679,46.543a2.559,2.559,0,0,1,2.432-1.765h.327a4.113,4.113,0,0,0,3.178,0h.327a2.559,2.559,0,0,1,2.432,1.765.629.629,0,0,1-.623.791H3.3A.63.63,0,0,1,2.679,46.543Z" transform="translate(0 -32)"/></svg>